<svg xmlns="http://www.w3.org/2000/svg" width="108" height="108" viewBox="0 0 108 108">
    <path fill="#145B72" fill-rule="evenodd" d="M54 39.286L17.76 3.047c-4.062-4.063-10.65-4.063-14.713 0-4.063 4.063-4.063 10.65 0 14.714L39.287 54 3.046 90.24c-4.063 4.062-4.063 10.65 0 14.713 4.063 4.063 10.65 4.063 14.714 0L54 68.713l36.24 36.24c4.062 4.063 10.65 4.063 14.713 0 4.063-4.063 4.063-10.65 0-14.714L68.713 54l36.24-36.24c4.063-4.062 4.063-10.65 0-14.713-4.063-4.063-10.65-4.063-14.714 0L54 39.287z" opacity=".8"/>
</svg>
